HIERARCHY
ROOT Hips
{
	OFFSET 0.00000 0.00000 0.00000
	CHANNELS 6 Xposition Yposition Zposition Zrotation Yrotation Xrotation 
	JOINT LHipJoint
	{
		OFFSET 0 0 0
		CHANNELS 3 Zrotation Yrotation Xrotation
		JOINT LeftHip
		{
			OFFSET 1.58895 -1.83665 0.71753
			CHANNELS 3 Zrotation Yrotation Xrotation
			JOINT LeftKnee
			{
				OFFSET 2.50528 -6.88321 0.00000
				CHANNELS 3 Zrotation Yrotation Xrotation
				JOINT LeftAnkle
				{
					OFFSET 2.63244 -7.23257 0.00000
					CHANNELS 3 Zrotation Yrotation Xrotation
					JOINT LeftToe
					{
						OFFSET 0.23691 -0.65090 1.72750
						CHANNELS 3 Zrotation Yrotation Xrotation
						End Site
						{
							OFFSET 0.00000 -0.00000 0.92561
						}
					}
				}
			}
		}
	}
	JOINT RHipJoint
	{
		OFFSET 0 0 0
		CHANNELS 3 Zrotation Yrotation Xrotation
		JOINT RightHip
		{
			OFFSET -1.51435 -1.83665 0.71753
			CHANNELS 3 Zrotation Yrotation Xrotation
			JOINT RightKnee
			{
				OFFSET -2.54551 -6.99375 0.00000
				CHANNELS 3 Zrotation Yrotation Xrotation
				JOINT RightAnkle
				{
					OFFSET -2.66027 -7.30903 0.00000
					CHANNELS 3 Zrotation Yrotation Xrotation
					JOINT RightToe
					{
						OFFSET -0.22981 -0.63138 2.03959
						CHANNELS 3 Zrotation Yrotation Xrotation
						End Site
						{
							OFFSET -0.00000 -0.00000 1.07060
						}
					}
				}
			}
		}
	}
	JOINT lowerback
	{
		OFFSET 0 0 0
		CHANNELS 3 Zrotation Yrotation Xrotation
		JOINT Chest
		{
			OFFSET -0.02651 1.86275 -0.11152
			CHANNELS 3 Zrotation Yrotation Xrotation
			JOINT Chest2
			{
				OFFSET 0.01019 1.86224 0.04087
				CHANNELS 3 Zrotation Yrotation Xrotation
				JOINT lowerneck
				{
					OFFSET 0 0 0
					CHANNELS 3 Zrotation Yrotation Xrotation
					JOINT Neck
					{
						OFFSET -0.01926 1.80512 0.08867
						CHANNELS 3 Zrotation Yrotation Xrotation
						JOINT Head
						{
							OFFSET 0.05516 1.76451 -0.38475
							CHANNELS 3 Zrotation Yrotation Xrotation
							End Site
							{
								OFFSET 0.01592 1.82587 -0.14001
							}
						}
					}
				}
				JOINT LeftCollar
				{
					OFFSET 0 0 0
					CHANNELS 3 Zrotation Yrotation Xrotation
					JOINT LeftShoulder
					{
						OFFSET 3.47116 1.51376 0.14491
CHANNELS 3 Zrotation Xrotation Yrotation
						JOINT LeftElbow
						{
OFFSET 0 -4.780950 0.000000
CHANNELS 3 Zrotation Xrotation Yrotation
							JOINT LeftWrist
							{
OFFSET 0 -3.586150 -0.000000
CHANNELS 3 Zrotation Xrotation Yrotation
								JOINT lhand
								{
									OFFSET 0 0 0
CHANNELS 3 Zrotation Xrotation Yrotation
									JOINT LFingers
									{
OFFSET 0 -0.659810 0.000000
CHANNELS 3 Zrotation Xrotation Yrotation
										End Site
										{
OFFSET 0 -0.531960 0.000000
										}
									}
								}
								JOINT LThumb
								{
OFFSET 0 0.000000 0.000000
CHANNELS 3 Zrotation Xrotation Yrotation
									End Site
									{
OFFSET 0 -0.540080 0.540080
									}
								}
							}
						}
					}
				}
				JOINT RightCollar
				{
					OFFSET 0 0 0
					CHANNELS 3 Zrotation Yrotation Xrotation
					JOINT RightShoulder
					{
						OFFSET -3.31725 1.61216 0.35156
CHANNELS 3 Zrotation Xrotation Yrotation
						JOINT RightElbow
						{
OFFSET 0 -4.489130 0.000000
CHANNELS 3 Zrotation Xrotation Yrotation
							JOINT RightWrist
							{
OFFSET 0 -3.705100 0.000000
CHANNELS 3 Zrotation Xrotation Yrotation
								JOINT rhand
								{
									OFFSET 0 0 0
CHANNELS 3 Zrotation Xrotation Yrotation
									JOINT RFingers
									{
OFFSET 0 -0.449140 0.000000
CHANNELS 3 Zrotation Xrotation Yrotation
										End Site
										{
OFFSET 0 -0.362110 0.000000
										}
									}
								}
								JOINT RThumb
								{
OFFSET 0 0.000000 0.000000
CHANNELS 3 Zrotation Xrotation Yrotation
									End Site
									{
OFFSET 0 -0.367630 0.367630
									}
								}
							}
						}
					}
				}
			}
		}
	}
}
MOTION
Frames: 17
Frame Time: .0083333
-0.7172 18.6894 5.5895 -1.9227 -3.6400 0.7341 0.0000 0.0000 0.0000 -12.9276 -7.5409 -1.4521 1.2859 7.1856 20.2665 1.6181 6.0727 -26.8763 7.9818 -16.1058 -52.4970 0.0000 0.0000 0.0000 0.0000 0.0000 0.0000 0.0000 0.0000 0.0000 -0.0000 -0.0000 0.0000 -0.0000 -0.0000 0.0000 -1.6448 0.6868 2.3096 0.2994 0.8659 -1.4981 1.1882 0.4671 -2.8625 0.9181 -0.6360 -14.0789 1.3784 -1.5227 25.1583 0.1348 -0.4536 10.3733 -0.0000 -0.0000 0.0000 -1.8895 12.6174 -20.7949 22.0898 -33.0784 6.6348 10.3104 8.144 26.0136 0.0 0.0 0.0 -7.1250 0.0 0.0 -11.7538 4.0659 -11.132 -0.0000 -0.0000 0.0000 -0.0545 20.6923 22.8428 -26.7425 -37.9325 -9.3404 -2.7463 18.7827 37.6356 0.0 0.0 0.0 7.1250 0.0 -0.0 39.0187 63.3869 -18.8272
-0.7139 18.6903 5.5892 -1.8688 -3.6137 0.7532 0.0000 0.0000 0.0000 -12.9943 -7.5479 -1.4853 1.2864 7.1871 20.2707 1.6146 6.0787 -26.8549 7.9947 -16.1153 -52.5434 0.0000 0.0000 0.0000 0.0000 0.0000 0.0000 0.0000 0.0000 0.0000 -0.0000 -0.0000 0.0000 -0.0000 -0.0000 0.0000 -1.6890 0.6727 2.3100 0.2888 0.8449 -1.5284 1.2028 0.4578 -2.8939 0.9612 -0.6235 -14.0226 1.3483 -1.5068 25.1502 0.1191 -0.4462 10.3587 -0.0000 -0.0000 0.0000 -1.8389 12.6354 -20.8513 22.1228 -33.1155 6.6528 10.3723 8.0956 26.0083 0.0 0.0 0.0 -7.1250 0.0 0.0 -11.7164 4.0639 -11.0955 -0.0000 -0.0000 0.0000 -0.0527 20.7791 22.8465 -26.7523 -37.942 -9.3464 -1.7618 18.2493 37.9288 0.0 0.0 0.0 7.1250 0.0 -0.0 40.3642 63.3474 -19.5481
-0.7112 18.6909 5.5896 -1.8534 -3.6193 0.7635 0.0000 0.0000 0.0000 -13.0213 -7.5504 -1.4974 1.2870 7.1886 20.2752 1.6166 6.0915 -26.8764 7.9993 -16.1187 -52.5602 0.0000 0.0000 0.0000 0.0000 0.0000 0.0000 0.0000 0.0000 0.0000 -0.0000 -0.0000 0.0000 -0.0000 -0.0000 0.0000 -1.7039 0.6640 2.2946 0.3028 0.8334 -1.5455 1.2262 0.4527 -2.9029 0.9725 -0.6166 -13.9776 1.2986 -1.4858 25.1499 0.1024 -0.4417 10.3492 0.0000 -0.0000 0.0000 -1.8306 12.6418 -20.8866 22.1625 -33.1601 6.6745 10.4592 7.9938 26.0075 0.0 0.0 0.0 -7.1250 0.0 0.0 -11.6642 4.0543 -11.046 0.0000 -0.0000 0.0000 -0.1355 20.8404 22.9826 -26.7403 -37.9304 -9.339 -1.7583 18.2235 38.0629 0.0 0.0 0.0 7.1250 0.0 -0.0 40.5448 63.4478 -19.7447
-0.7091 18.6907 5.5901 -1.8743 -3.6164 0.7787 0.0000 0.0000 0.0000 -13.0094 -7.6015 -1.4925 1.2876 7.1901 20.2799 1.6268 6.0759 -26.9395 7.9832 -16.1069 -52.5022 0.0000 0.0000 0.0000 0.0000 0.0000 0.0000 0.0000 0.0000 0.0000 -0.0000 -0.0000 0.0000 -0.0000 -0.0000 0.0000 -1.7003 0.6629 2.2631 0.3336 0.8335 -1.5418 1.2562 0.4528 -2.8817 0.9287 -0.6293 -14.0442 1.3038 -1.4964 25.2080 0.1101 -0.4491 10.3837 0.0000 0.0000 0.0000 -1.8309 12.6103 -20.9262 22.1846 -33.1851 6.6866 10.4024 7.966 26.0598 0.0 0.0 0.0 -7.1250 0.0 0.0 -11.7004 4.0096 -11.0917 0.0000 0.0000 0.0000 -0.2134 20.8449 23.0838 -26.7220 -37.9128 -9.3278 -1.7047 18.1423 38.1285 0.0 0.0 0.0 7.1250 0.0 -0.0 40.6839 63.4828 -19.857
-0.7060 18.6907 5.5911 -1.9007 -3.5991 0.8012 0.0000 0.0000 0.0000 -12.9976 -7.6806 -1.4797 1.2873 7.1894 20.2777 1.6324 6.0792 -26.9809 7.9712 -16.0980 -52.4587 0.0000 0.0000 0.0000 0.0000 0.0000 0.0000 0.0000 0.0000 0.0000 -0.0000 -0.0000 0.0000 -0.0000 -0.0000 0.0000 -1.6736 0.6610 2.2227 0.3615 0.8334 -1.5364 1.2705 0.4523 -2.8534 0.8879 -0.6441 -14.0957 1.3364 -1.5174 25.2416 0.1257 -0.4582 10.4066 -0.0000 0.0000 0.0000 -1.8595 12.5427 -20.8331 22.1625 -33.1602 6.6745 10.2535 8.1435 26.1226 0.0 0.0 0.0 -7.1250 0.0 0.0 -11.7921 3.9653 -11.1924 -0.0000 0.0000 0.0000 -0.2555 20.8476 23.1072 -26.7243 -37.915 -9.3292 -1.6675 18.0576 38.1535 0.0 0.0 0.0 7.1250 0.0 -0.0 40.7534 63.4916 -19.9051
-0.7028 18.6909 5.5929 -1.9060 -3.5878 0.8119 0.0000 0.0000 0.0000 -13.0125 -7.7400 -1.4543 1.2857 7.1851 20.2650 1.6337 6.1108 -27.0091 7.9647 -16.0932 -52.4355 0.0000 0.0000 0.0000 0.0000 0.0000 0.0000 0.0000 0.0000 0.0000 -0.0000 -0.0000 0.0000 -0.0000 -0.0000 0.0000 -1.6467 0.6616 2.1998 0.3735 0.8357 -1.5470 1.2677 0.4531 -2.8513 0.8613 -0.6545 -14.0477 1.3530 -1.5282 25.2044 0.1348 -0.4643 10.3841 0.0000 0.0000 0.0000 -1.8849 12.4892 -20.7288 22.1174 -33.1094 6.6499 10.2634 8.2528 26.1725 0.0 0.0 0.0 -7.1250 0.0 0.0 -11.7880 3.915 -11.1997 0.0000 0.0000 0.0000 -0.261 20.8738 23.0668 -26.7206 -37.9114 -9.3269 -1.7379 18.1232 38.1784 0.0 0.0 0.0 7.1250 0.0 -0.0 40.7181 63.5292 -19.9202
-0.7006 18.6913 5.5949 -1.8681 -3.5767 0.8147 0.0000 0.0000 0.0000 -13.0738 -7.7991 -1.4207 1.2843 7.1813 20.2535 1.6420 6.1244 -27.0752 7.9488 -16.0815 -52.3780 0.0000 0.0000 0.0000 0.0000 0.0000 0.0000 0.0000 0.0000 0.0000 -0.0000 -0.0000 0.0000 -0.0000 -0.0000 0.0000 -1.6855 0.6582 2.1851 0.3793 0.8301 -1.5718 1.2957 0.4515 -2.8691 0.7929 -0.6598 -14.0017 1.4038 -1.5313 25.2083 0.1643 -0.4664 10.3775 -0.0000 0.0000 0.0000 -1.8902 12.4873 -20.7163 22.0828 -33.0704 6.6309 10.3579 8.2007 26.1936 0.0 0.0 0.0 -7.1250 0.0 0.0 -11.7323 3.8831 -11.1514 -0.0000 0.0000 0.0000 -0.2801 20.907 23.0452 -26.6887 -37.8807 -9.3073 -1.8796 18.2746 38.1976 0.0 0.0 0.0 7.1250 0.0 -0.0 40.6059 63.5818 -19.9053
-0.6990 18.6915 5.5964 -1.8299 -3.5659 0.8191 0.0000 0.0000 0.0000 -13.1331 -7.8601 -1.3909 1.2832 7.1783 20.2446 1.6493 6.1369 -27.1338 7.9244 -16.0633 -52.2898 0.0000 0.0000 0.0000 0.0000 0.0000 0.0000 0.0000 0.0000 0.0000 -0.0000 -0.0000 0.0000 -0.0000 -0.0000 0.0000 -1.7385 0.6478 2.1766 0.3852 0.8146 -1.5951 1.3323 0.4452 -2.8887 0.7657 -0.6541 -14.0138 1.4326 -1.5259 25.2774 0.1798 -0.4624 10.4056 0.0000 -0.0000 0.0000 -1.8875 12.5067 -20.708 22.0705 -33.0566 6.6243 10.4013 8.145 26.154 0.0 0.0 0.0 -7.1250 0.0 0.0 -11.7047 3.9169 -11.1166 0.0000 -0.0000 0.0000 -0.3081 20.9449 23.063 -26.6807 -37.873 -9.3024 -1.957 18.3244 38.2184 0.0 0.0 0.0 7.1250 0.0 -0.0 40.5583 63.6183 -19.9122
-0.6981 18.6916 5.5975 -1.8436 -3.5678 0.8311 0.0000 0.0000 0.0000 -13.1264 -7.8886 -1.3790 1.2814 7.1736 20.2307 1.6510 6.1451 -27.1507 7.9058 -16.0495 -52.2227 0.0000 0.0000 0.0000 0.0000 0.0000 0.0000 0.0000 0.0000 0.0000 -0.0000 -0.0000 0.0000 -0.0000 -0.0000 0.0000 -1.7243 0.6406 2.1771 0.3863 0.8053 -1.6136 1.3257 0.4406 -2.9075 0.8064 -0.6458 -14.0505 1.4133 -1.5215 25.3461 0.1665 -0.4579 10.4374 0.0000 0.0000 0.0000 -1.8473 12.5439 -20.7171 22.0893 -33.0778 6.6345 10.4044 8.1348 26.055 0.0 0.0 0.0 -7.1250 0.0 0.0 -11.6990 4.0141 -11.0893 0.0000 0.0000 0.0000 -0.2951 20.9601 23.0527 -26.6904 -37.8823 -9.3084 -1.9213 18.3145 38.1706 0.0 0.0 0.0 7.1250 0.0 -0.0 40.5294 63.5728 -19.8531
-0.6973 18.6917 5.5983 -1.8562 -3.5628 0.8611 0.0000 0.0000 0.0000 -13.1106 -7.8961 -1.4042 1.2802 7.1703 20.2208 1.6515 6.1334 -27.1468 7.9079 -16.0511 -52.2302 0.0000 0.0000 0.0000 0.0000 0.0000 0.0000 0.0000 0.0000 0.0000 -0.0000 -0.0000 0.0000 -0.0000 -0.0000 0.0000 -1.6992 0.6367 2.1504 0.3812 0.8012 -1.6278 1.3068 0.4381 -2.9064 0.8229 -0.6388 -14.0585 1.4188 -1.5178 25.3616 0.1661 -0.4538 10.4446 -0.0000 -0.0000 0.0000 -1.7977 12.5709 -20.7404 22.1138 -33.1053 6.6479 10.3883 8.1379 26.0111 0.0 0.0 0.0 -7.1250 0.0 0.0 -11.7069 4.0592 -11.0871 -0.0000 -0.0000 0.0000 -0.2711 20.9477 23.0161 -26.6922 -37.8841 -9.3095 -1.859 18.3029 38.0528 0.0 0.0 0.0 7.1250 0.0 -0.0 40.4334 63.4672 -19.6994
-0.6959 18.6920 5.5996 -1.8100 -3.5369 0.8799 0.0000 0.0000 0.0000 -13.1591 -7.8914 -1.4375 1.2806 7.1715 20.2244 1.6490 6.1212 -27.1221 7.9179 -16.0585 -52.2664 0.0000 0.0000 0.0000 0.0000 0.0000 0.0000 0.0000 0.0000 0.0000 -0.0000 -0.0000 0.0000 -0.0000 -0.0000 0.0000 -1.7441 0.6233 2.1123 0.3731 0.7822 -1.6374 1.3249 0.4294 -2.8947 0.8235 -0.6299 -14.0096 1.4253 -1.5054 25.3155 0.1701 -0.4480 10.4182 0.0000 -0.0000 0.0000 -1.7937 12.5729 -20.7149 22.1197 -33.112 6.6511 10.3627 8.1551 25.9766 0.0 0.0 0.0 -7.1250 0.0 0.0 -11.7209 4.0962 -11.0928 0.0000 -0.0000 0.0000 -0.29 20.9501 23.0241 -26.7033 -37.8948 -9.3163 -1.8152 18.2723 37.9514 0.0 0.0 0.0 7.1250 0.0 -0.0 40.3421 63.3788 -19.5649
-0.6950 18.6921 5.6015 -1.7744 -3.5101 0.8707 0.0000 0.0000 0.0000 -13.1877 -7.8124 -1.4690 1.2819 7.1750 20.2349 1.6420 6.0731 -27.0456 7.9282 -16.0662 -52.3036 0.0000 0.0000 0.0000 0.0000 0.0000 0.0000 0.0000 0.0000 0.0000 -0.0000 -0.0000 0.0000 -0.0000 -0.0000 0.0000 -1.7943 0.6083 2.0943 0.3717 0.7608 -1.6350 1.3528 0.4196 -2.8820 0.8588 -0.6291 -13.9655 1.3795 -1.4989 25.2553 0.1488 -0.4480 10.3869 0.0000 -0.0000 0.0000 -1.7929 12.5632 -20.6921 22.1117 -33.103 6.6467 10.3481 8.2021 25.8621 0.0 0.0 0.0 -7.1250 0.0 0.0 -11.7253 4.2107 -11.0715 0.0000 -0.0000 0.0000 -0.3188 20.9507 23.0541 -26.7220 -37.9128 -9.3278 -1.7954 18.2251 37.8621 0.0 0.0 0.0 7.1250 0.0 -0.0 40.2441 63.306 -19.4414
-0.6949 18.6917 5.6030 -1.7979 -3.4828 0.8593 0.0000 0.0000 0.0000 -13.1448 -7.7239 -1.5001 1.2835 7.1793 20.2477 1.6385 5.9910 -26.9731 7.9375 -16.0731 -52.3372 0.0000 0.0000 0.0000 0.0000 0.0000 0.0000 0.0000 0.0000 0.0000 -0.0000 -0.0000 0.0000 -0.0000 -0.0000 0.0000 -1.7881 0.5954 2.0934 0.3816 0.7441 -1.6288 1.3603 0.4111 -2.8746 0.9006 -0.6281 -13.9496 1.3456 -1.4977 25.2093 0.1298 -0.4481 10.3663 0.0000 -0.0000 0.0000 -1.7758 12.5507 -20.6563 22.0925 -33.0814 6.6363 10.295 8.3099 25.8348 0.0 0.0 0.0 -7.1250 0.0 0.0 -11.7562 4.2438 -11.0946 0.0000 -0.0000 0.0000 -0.3416 20.9421 23.094 -26.7527 -37.9424 -9.3467 -1.7946 18.1505 37.8803 0.0 0.0 0.0 7.1250 0.0 -0.0 40.2688 63.3195 -19.4679
-0.6955 18.6912 5.6041 -1.8271 -3.4430 0.8433 0.0000 0.0000 0.0000 -13.0870 -7.6222 -1.5409 1.2861 7.1861 20.2678 1.6362 5.8643 -26.8837 7.9368 -16.0726 -52.3347 0.0000 0.0000 0.0000 0.0000 0.0000 0.0000 0.0000 0.0000 0.0000 -0.0000 -0.0000 0.0000 -0.0000 -0.0000 0.0000 -1.7891 0.5739 2.1172 0.4024 0.7155 -1.6316 1.3833 0.3973 -2.8901 0.9001 -0.6224 -13.9215 1.3528 -1.4903 25.1699 0.1335 -0.4444 10.3466 -0.0000 0.0000 0.0000 -1.7866 12.5535 -20.5571 22.0591 -33.0438 6.6181 10.2111 8.437 25.9369 0.0 0.0 0.0 -7.1250 0.0 0.0 -11.8104 4.1531 -11.1685 -0.0000 0.0000 0.0000 -0.3948 20.93 23.175 -26.7766 -37.9653 -9.3614 -1.8457 18.1104 38.0133 0.0 0.0 0.0 7.1250 0.0 -0.0 40.3940 63.4338 -19.6457
-0.6965 18.6912 5.6040 -1.8412 -3.3953 0.8198 0.0000 0.0000 0.0000 -13.0283 -7.4365 -1.6183 1.2887 7.1933 20.2893 1.6215 5.7147 -26.6939 7.9608 -16.0904 -52.4215 0.0000 0.0000 0.0000 0.0000 0.0000 0.0000 0.0000 0.0000 0.0000 -0.0000 -0.0000 0.0000 -0.0000 -0.0000 0.0000 -1.8240 0.5529 2.1560 0.4321 0.6863 -1.6317 1.4345 0.3840 -2.9119 0.8847 -0.6308 -13.9224 1.3383 -1.4944 25.1678 0.1304 -0.4496 10.3459 0.0000 0.0000 0.0000 -1.8147 12.5683 -20.5068 22.0392 -33.0213 6.6072 10.1915 8.4619 26.0319 0.0 0.0 0.0 -7.1250 0.0 0.0 -11.8258 4.0618 -11.2042 0.0000 0.0000 0.0000 -0.4683 20.8908 23.2374 -26.7701 -37.9591 -9.3574 -1.8323 18.0938 38.0303 0.0 0.0 0.0 7.1250 0.0 -0.0 40.4296 63.443 -19.6746
-0.6967 18.6911 5.6033 -1.8493 -3.3493 0.8065 0.0000 0.0000 0.0000 -13.0098 -7.4199 -1.6308 1.2902 7.1971 20.3005 1.6150 5.6897 -26.6330 7.9772 -16.1024 -52.4804 0.0000 0.0000 0.0000 0.0000 0.0000 0.0000 0.0000 0.0000 0.0000 -0.0000 -0.0000 0.0000 -0.0000 -0.0000 0.0000 -1.8368 0.5404 2.1777 0.4504 0.6694 -1.6227 1.4611 0.3760 -2.9145 0.8696 -0.6338 -13.9709 1.3355 -1.4956 25.1997 0.1317 -0.4512 10.3670 0.0000 -0.0000 0.0000 -1.8245 12.5724 -20.5322 22.0473 -33.0304 6.6116 10.1531 8.4407 26.0785 0.0 0.0 0.0 -7.1250 0.0 0.0 -11.8506 4.0205 -11.2381 0.0000 -0.0000 0.0000 -0.5303 20.8365 23.2586 -26.7681 -37.9572 -9.3562 -1.7772 18.0783 37.975 0.0 0.0 0.0 7.1250 0.0 -0.0 40.4102 63.3864 -19.6107
-0.6965 18.6911 5.6035 -1.8440 -3.3105 0.7987 0.0000 0.0000 0.0000 -13.0312 -7.5277 -1.5839 1.2908 7.1989 20.3060 1.6233 5.7098 -26.7040 7.9563 -16.0870 -52.4053 0.0000 0.0000 0.0000 0.0000 0.0000 0.0000 0.0000 0.0000 0.0000 -0.0000 -0.0000 0.0000 -0.0000 -0.0000 0.0000 -1.8270 0.5333 2.1885 0.4431 0.6599 -1.6194 1.4485 0.3709 -2.9167 0.8633 -0.6277 -13.9978 1.3604 -1.4928 25.2187 0.1419 -0.4472 10.3795 -0.0000 0.0000 0.0000 -1.8068 12.5711 -20.5543 22.0491 -33.0325 6.6126 10.0923 8.4534 26.0916 0.0 0.0 0.0 -7.1250 0.0 0.0 -11.8874 4.0147 -11.2759 -0.0000 0.0000 0.0000 -0.5594 20.802 23.2734 -26.7820 -37.9705 -9.3647 -1.7684 18.0219 37.9925 0.0 0.0 0.0 7.1250 0.0 -0.0 40.4417 63.3973 -19.6387
